<svg xmlns="http://www.w3.org/2000/svg" viewBox="0 0 512 512" style="height: 143px; width: 143px;"><defs><radialGradient id="delapouite-chat-bubble-gradient-0"><stop offset="0%" stop-color="#c79a00" stop-opacity="1"></stop><stop offset="100%" stop-color="#ffca28" stop-opacity="1"></stop></radialGradient><radialGradient id="delapouite-chat-bubble-gradient-1"><stop offset="0%" stop-color="#fff" stop-opacity="1"></stop><stop offset="100%" stop-color="#fff" stop-opacity="1"></stop></radialGradient></defs><polygon points="437.02,437.02,256,512,74.98,437.02,0,256,74.98,74.98,256,0,437.02,74.98,512,256" fill="url(#delapouite-chat-bubble-gradient-0)"></polygon><g class="" transform="translate(2,15)" style=""><path d="M229.7 22.66A155.2 235.6 80.24 0 0 23.81 215.6 155.2 235.6 80.24 0 0 236.7 333.4c23.8 55.6-17.1 109.3-83.6 161.1 86.2-28.3 176.2-94.4 179.7-178.7a155.2 235.6 80.24 0 0 155.4-180.1A155.2 235.6 80.24 0 0 229.7 22.66z" fill="url(#delapouite-chat-bubble-gradient-1)" transform="translate(76.8, 76.8) scale(0.7, 0.7) rotate(-360, 256, 256) skewX(0) skewY(0)"></path></g></svg>